<?xml version="1.0"?>
<svg xmlns="http://www.w3.org/2000/svg" viewBox="0 0 26 26" enable-background="new 0 0 26 26">
    <path d="M 13.5 0 C 6.6 0 1 5.6 1 12.5 C 1 19.4 6.6 25 13.5 25 C 20.4 25 26 19.4 26 12.5 C 26 5.6 20.4 0 13.5 0 z M 13.5 1.8125 C 19.4 1.8125 24.1875 6.6 24.1875 12.5 C 24.1875 18.4 19.4 23.1875 13.5 23.1875 C 7.6 23.1875 2.8125 18.4 2.8125 12.5 C 2.8125 6.6 7.6 1.8125 13.5 1.8125 z M 13.5 5.40625 L 8 10.90625 L 8 13.6875 L 12 9.6875 L 12 19 L 15 19 L 15 9.6875 L 19 13.6875 L 19 10.90625 L 13.5 5.40625 z"/>
</svg>
